<svg width="27" height="24" viewBox="0 0 27 24" fill="none" xmlns="http://www.w3.org/2000/svg">
<g clip-path="url(#clip0_709_179)">
<path d="M25.9335 11.6541L23.8871 7.56313C23.3568 6.50256 22.4918 5.60147 21.397 4.96907C20.3021 4.33667 19.0244 4.00009 17.7188 4.00013H16.2L15.4575 1.35813C15.348 0.97038 15.0959 0.626258 14.7413 0.380385C14.3866 0.134511 13.9498 0.000976563 13.5 0.000976562C13.0502 0.000976563 12.6134 0.134511 12.2587 0.380385C11.9041 0.626258 11.652 0.97038 11.5425 1.35813L10.8 4.00013H5.625C4.13371 4.00172 2.704 4.52901 1.6495 5.46635C0.594992 6.40369 0.00178634 7.67453 0 9.00013L0 17.0001C0.0024138 17.6311 0.228995 18.2452 0.647401 18.7548C1.06581 19.2645 1.65465 19.6436 2.32987 19.8381C2.27895 20.0559 2.2522 20.2777 2.25 20.5001C2.25 21.4284 2.66484 22.3186 3.40327 22.975C4.14169 23.6314 5.14321 24.0001 6.1875 24.0001C7.23179 24.0001 8.23331 23.6314 8.97173 22.975C9.71016 22.3186 10.125 21.4284 10.125 20.5001C10.1232 20.3327 10.1078 20.1656 10.0789 20.0001H16.9211C16.8922 20.1656 16.8768 20.3327 16.875 20.5001C16.875 21.4284 17.2898 22.3186 18.0283 22.975C18.7667 23.6314 19.7682 24.0001 20.8125 24.0001C21.8568 24.0001 22.8583 23.6314 23.5967 22.975C24.3352 22.3186 24.75 21.4284 24.75 20.5001C24.7478 20.2777 24.7211 20.0559 24.6701 19.8381C25.3454 19.6436 25.9342 19.2645 26.3526 18.7548C26.771 18.2452 26.9976 17.6311 27 17.0001V16.1221C27.0025 14.5827 26.639 13.0601 25.9335 11.6541ZM21.8318 8.37613L23.1446 11.0001H19.125C18.8266 11.0001 18.5405 10.8948 18.3295 10.7072C18.1185 10.5197 18 10.2653 18 10.0001V6.01813C18.82 6.06282 19.6106 6.30619 20.286 6.72186C20.9615 7.13753 21.496 7.70963 21.8318 8.37613ZM7.875 20.5001C7.875 20.898 7.69721 21.2795 7.38074 21.5608C7.06428 21.8421 6.63505 22.0001 6.1875 22.0001C5.73995 22.0001 5.31072 21.8421 4.99426 21.5608C4.67779 21.2795 4.5 20.898 4.5 20.5001C4.50069 20.3292 4.53614 20.1598 4.60462 20.0001H7.77038C7.83886 20.1598 7.87431 20.3292 7.875 20.5001ZM20.8125 22.0001C20.3649 22.0001 19.9357 21.8421 19.6193 21.5608C19.3028 21.2795 19.125 20.898 19.125 20.5001C19.1257 20.3292 19.1611 20.1598 19.2296 20.0001H22.3954C22.4639 20.1598 22.4993 20.3292 22.5 20.5001C22.5 20.898 22.3222 21.2795 22.0057 21.5608C21.6893 21.8421 21.2601 22.0001 20.8125 22.0001ZM24.75 17.0001C24.75 17.2653 24.6315 17.5197 24.4205 17.7072C24.2095 17.8948 23.9234 18.0001 23.625 18.0001H3.375C3.07663 18.0001 2.79048 17.8948 2.5795 17.7072C2.36853 17.5197 2.25 17.2653 2.25 17.0001V9.00013C2.25 8.20448 2.60558 7.44142 3.23851 6.87881C3.87145 6.3162 4.72989 6.00013 5.625 6.00013H15.75V10.0001C15.75 10.7958 16.1056 11.5588 16.7385 12.1214C17.3714 12.6841 18.2299 13.0001 19.125 13.0001H24.1076C24.5301 13.9983 24.7476 15.0557 24.75 16.1221V17.0001ZM12.375 12.0001C12.375 12.2653 12.2565 12.5197 12.0455 12.7072C11.8345 12.8948 11.5484 13.0001 11.25 13.0001H10.125V14.0001C10.125 14.2653 10.0065 14.5197 9.7955 14.7072C9.58452 14.8948 9.29837 15.0001 9 15.0001C8.70163 15.0001 8.41548 14.8948 8.2045 14.7072C7.99353 14.5197 7.875 14.2653 7.875 14.0001V13.0001H6.75C6.45163 13.0001 6.16548 12.8948 5.9545 12.7072C5.74353 12.5197 5.625 12.2653 5.625 12.0001C5.625 11.7349 5.74353 11.4806 5.9545 11.293C6.16548 11.1055 6.45163 11.0001 6.75 11.0001H7.875V10.0001C7.875 9.73491 7.99353 9.48056 8.2045 9.29302C8.41548 9.10549 8.70163 9.00013 9 9.00013C9.29837 9.00013 9.58452 9.10549 9.7955 9.29302C10.0065 9.48056 10.125 9.73491 10.125 10.0001V11.0001H11.25C11.5484 11.0001 11.8345 11.1055 12.0455 11.293C12.2565 11.4806 12.375 11.7349 12.375 12.0001Z" fill="#005E2A"/>
</g>
<defs>
<clipPath id="clip0_709_179">
<rect width="27" height="24" fill="white"/>
</clipPath>
</defs>
</svg>
