<svg width="24" height="24" viewBox="0 0 24 24" fill="none" xmlns="http://www.w3.org/2000/svg">
<path d="M24 23.0001C24 23.2653 23.8947 23.5196 23.7071 23.7072C23.5196 23.8947 23.2653 24.0001 23 24.0001H1.00004C0.734824 24.0001 0.48047 23.8947 0.292933 23.7072C0.105397 23.5196 3.98827e-05 23.2653 3.98827e-05 23.0001C3.98827e-05 22.7348 0.105397 22.4805 0.292933 22.2929C0.48047 22.1054 0.734824 22.0001 1.00004 22.0001H23C23.2653 22.0001 23.5196 22.1054 23.7071 22.2929C23.8947 22.4805 24 22.7348 24 23.0001ZM0.29104 8.55206C0.0755622 8.15238 -0.0242655 7.70056 0.00276031 7.24731C0.0297861 6.79405 0.182596 6.3573 0.44404 5.98606C0.871298 5.35917 1.44348 4.84462 2.11204 4.48606L9.61304 0.582055C10.3503 0.198686 11.1691 -0.00146484 12 -0.00146484C12.831 -0.00146484 13.6498 0.198686 14.387 0.582055L21.887 4.48906C22.5556 4.84762 23.1278 5.36217 23.555 5.98906C23.8165 6.36029 23.9693 6.79705 23.9963 7.25031C24.0233 7.70356 23.9235 8.15538 23.708 8.55506C23.4761 8.99389 23.1281 9.36066 22.7021 9.61544C22.2761 9.87023 21.7884 10.0033 21.292 10.0001H21V18.0001H22C22.2653 18.0001 22.5196 18.1054 22.7071 18.2929C22.8947 18.4805 23 18.7348 23 19.0001C23 19.2653 22.8947 19.5196 22.7071 19.7072C22.5196 19.8947 22.2653 20.0001 22 20.0001H2.00004C1.73482 20.0001 1.48047 19.8947 1.29293 19.7072C1.1054 19.5196 1.00004 19.2653 1.00004 19.0001C1.00004 18.7348 1.1054 18.4805 1.29293 18.2929C1.48047 18.1054 1.73482 18.0001 2.00004 18.0001H3.00004V10.0001H2.70804C2.2112 10.0032 1.72305 9.86976 1.29683 9.61442C0.870612 9.35908 0.522699 8.9916 0.29104 8.55206ZM5.00004 18.0001H8.00004V10.0001H5.00004V18.0001ZM10 10.0001V18.0001H14V10.0001H10ZM19 10.0001H16V18.0001H19V10.0001ZM2.06304 7.62506C2.12578 7.74074 2.21915 7.83692 2.33292 7.90306C2.44669 7.9692 2.57647 8.00276 2.70804 8.00006H21.292C21.4236 8.00276 21.5534 7.9692 21.6672 7.90306C21.7809 7.83692 21.8743 7.74074 21.937 7.62506C21.9827 7.54862 22.0048 7.46039 22.0006 7.37143C21.9963 7.28248 21.9659 7.19676 21.913 7.12506C21.6707 6.76497 21.3452 6.4686 20.964 6.26106L13.464 2.35406C13.012 2.11948 12.5103 1.99703 12.001 1.99703C11.4918 1.99703 10.99 2.11948 10.538 2.35406L3.03804 6.26106C2.65702 6.46926 2.33157 6.76591 2.08904 7.12606C2.03613 7.19746 2.00544 7.28288 2.00082 7.37164C1.99619 7.46039 2.01784 7.54854 2.06304 7.62506Z" fill="#005E2A"/>
</svg>
