<svg width="24" height="22" viewBox="0 0 24 22" fill="none" xmlns="http://www.w3.org/2000/svg">
<g clip-path="url(#clip0_709_168)">
<path d="M21.2611 2.43463C19.5446 0.959545 17.2831 0.0897911 14.8983 -0.0124285C12.5136 -0.114648 10.1684 0.557646 8.30015 1.87907C7.89477 1.30085 7.32959 0.824525 6.65845 0.495469C5.9873 0.166412 5.23255 -0.00441178 4.46609 -0.000729373C3.69963 0.00295304 2.947 0.181019 2.2799 0.516505C1.61279 0.851992 1.05344 1.33372 0.655122 1.9158C0.256805 2.49789 0.0327933 3.16093 0.00442894 3.84177C-0.0239355 4.52261 0.144292 5.19857 0.493084 5.80524C0.841877 6.41192 1.35962 6.9291 1.99698 7.30753C2.63434 7.68595 3.37009 7.91301 4.13415 7.96708C3.81908 9.68345 4.11338 11.4444 4.97615 13.0053C5.02311 13.0853 5.04157 13.1761 5.02907 13.2657C5.01657 13.3552 4.97369 13.4393 4.90615 13.5066L2.00015 15.0622C1.26066 15.4083 0.672746 15.9644 0.330054 16.6419C-0.0126379 17.3194 -0.0903896 18.0794 0.109186 18.8007C0.308761 19.5221 0.774182 20.1633 1.4313 20.6223C2.08842 21.0813 2.89944 21.3316 3.73515 21.3333C3.88788 21.3333 4.04047 21.3253 4.19215 21.3093C4.74788 21.2518 5.28175 21.0832 5.7537 20.8161C6.22565 20.549 6.62341 20.1903 6.91715 19.7671L8.98515 16.9875C9.05972 16.9227 9.15526 16.8801 9.25837 16.866C9.36148 16.8518 9.467 16.8666 9.56015 16.9084C11.4269 17.7118 13.5348 17.96 15.5725 17.6163C17.6101 17.2726 19.4693 16.3553 20.8751 15C22.7889 13.3242 23.9072 11.0602 24.0001 8.67374C24.0518 7.52216 23.8352 6.3735 23.3639 5.29984C22.8926 4.22619 22.1767 3.25072 21.2611 2.43463ZM2.00015 3.99996C2.00015 3.56045 2.14677 3.13081 2.42147 2.76536C2.69617 2.39992 3.08662 2.11509 3.54344 1.9469C4.00025 1.7787 4.50292 1.7347 4.98787 1.82044C5.47282 1.90619 5.91828 2.11783 6.26791 2.42862C6.61754 2.7394 6.85565 3.13536 6.95211 3.56643C7.04857 3.9975 6.99906 4.44431 6.80984 4.85037C6.62063 5.25643 6.30019 5.60349 5.88907 5.84767C5.47795 6.09185 4.9946 6.22219 4.50015 6.22219C3.8371 6.22219 3.20122 5.98806 2.73238 5.57131C2.26354 5.15456 2.00015 4.58933 2.00015 3.99996ZM10.4401 15.312C9.93918 15.0915 9.36943 15.0271 8.82232 15.1289C8.2752 15.2308 7.78246 15.4931 7.42315 15.8737C7.39915 15.8995 7.37715 15.9262 7.35615 15.9537L5.22915 18.8142C5.01949 19.1189 4.69779 19.3498 4.31854 19.4678C3.93929 19.5858 3.52582 19.5836 3.14817 19.4616C2.77052 19.3396 2.45191 19.1054 2.24634 18.7985C2.04076 18.4916 1.96085 18.131 2.02015 17.7777C2.06299 17.529 2.17272 17.2931 2.34002 17.09C2.50732 16.887 2.72725 16.7229 2.98115 16.6115L6.02215 14.984C6.06651 14.9604 6.10865 14.9336 6.14815 14.904C6.57522 14.584 6.86884 14.1456 6.98184 13.6594C7.09483 13.1732 7.02062 12.6673 6.77115 12.2231C6.11811 11.0515 5.87665 9.73244 6.07815 8.4373L14.5111 15.9333C13.1152 16.0784 11.7017 15.8626 10.4401 15.312ZM19.4611 13.7431C18.6755 14.443 17.7487 15.0054 16.7291 15.4009C16.7201 15.392 16.7171 15.3804 16.7071 15.3715L7.36015 7.06219C7.87061 6.69083 8.28236 6.22371 8.56589 5.6943C8.84942 5.1649 8.99771 4.5863 9.00015 3.99996C9.00015 3.89419 8.97415 3.79463 8.96515 3.69152C10.4457 2.47342 12.3888 1.79677 14.4061 1.79677C16.4235 1.79677 18.3666 2.47342 19.8471 3.69152C20.5692 4.33693 21.1332 5.10816 21.5038 5.95671C21.8743 6.80525 22.0433 7.71277 22.0001 8.62219C21.9218 10.555 21.0132 12.3876 19.4611 13.7431Z" fill="#005E2A"/>
</g>
<defs>
<clipPath id="clip0_709_168">
<rect width="24" height="21.3333" fill="white"/>
</clipPath>
</defs>
</svg>
