<svg width="27" height="24" viewBox="0 0 27 24" fill="none" xmlns="http://www.w3.org/2000/svg">
<g clip-path="url(#clip0_709_159)">
<path d="M26.9494 21.3188C26.9055 21.1933 26.8343 21.0768 26.7398 20.9759C26.6453 20.8749 26.5293 20.7915 26.3985 20.7304C26.2677 20.6693 26.1246 20.6317 25.9775 20.6198C25.8303 20.6078 25.682 20.6217 25.5409 20.6608L24.0784 21.0608L23.031 18.3238C24.1311 17.7751 24.9892 16.9108 25.465 15.8723C25.9407 14.8338 26.006 13.6825 25.65 12.6068L23.5767 7.13177C23.3157 6.38432 22.7388 5.75596 21.9673 5.37885C21.1958 5.00175 20.2899 4.90529 19.44 5.10977L15.1065 6.18377C14.4851 6.33747 13.9271 6.648 13.5 7.07777C13.073 6.648 12.515 6.33747 11.8935 6.18377L7.5589 5.10977C6.71523 4.9029 5.8142 4.99463 5.04499 5.36568C4.27578 5.73673 3.6982 6.35826 3.43352 7.09977L1.33315 12.6568C0.991171 13.7317 1.06776 14.8778 1.55051 15.9092C2.03325 16.9405 2.89382 17.7967 3.99265 18.3388L2.93065 21.0668L1.46252 20.6608C1.32144 20.6214 1.173 20.6071 1.02569 20.6187C0.878378 20.6303 0.73508 20.6675 0.603975 20.7283C0.472871 20.7892 0.356527 20.8723 0.261587 20.9731C0.166647 21.0739 0.0949708 21.1904 0.0506497 21.3158C0.00632854 21.4412 -0.00976907 21.5731 0.00327594 21.7041C0.016321 21.835 0.0582531 21.9624 0.126678 22.0789C0.195103 22.1955 0.288682 22.2989 0.40207 22.3833C0.515458 22.4677 0.646436 22.5314 0.787525 22.5708L3.21752 23.2418C3.2344 23.2418 3.24452 23.2588 3.2614 23.2648C3.27827 23.2708 3.3199 23.2708 3.34915 23.2778L5.80277 23.9548C6.08772 24.0335 6.39619 24.0085 6.66034 23.8851C6.92448 23.7617 7.12266 23.55 7.21127 23.2968C7.29989 23.0435 7.27168 22.7693 7.13286 22.5345C6.99404 22.2997 6.75597 22.1235 6.47102 22.0448L5.08052 21.6598L6.1324 18.9598C6.34101 18.9836 6.55097 18.9969 6.76127 18.9998C7.97759 18.9971 9.16016 18.6441 10.1317 17.9936C11.1032 17.3431 11.8114 16.4302 12.15 15.3918L13.5 11.8358L14.8309 15.3358C15.1589 16.3874 15.8651 17.3148 16.8415 17.9763C17.8179 18.6379 19.011 18.9973 20.2388 18.9998C20.4573 18.9979 20.6756 18.9846 20.8924 18.9598L21.9252 21.6598L20.5257 22.0458C20.2407 22.1245 20.0026 22.3007 19.8638 22.5355C19.725 22.7703 19.6968 23.0445 19.7854 23.2978C19.874 23.551 20.0722 23.7627 20.3363 23.8861C20.6005 24.0095 20.909 24.0345 21.1939 23.9558L23.6408 23.2808C23.67 23.2738 23.7004 23.2808 23.7297 23.2678C23.7589 23.2548 23.7589 23.2488 23.7769 23.2428L26.2092 22.5718C26.3504 22.5328 26.4816 22.4694 26.5952 22.3853C26.7089 22.3012 26.8028 22.1981 26.8715 22.0817C26.9403 21.9653 26.9825 21.838 26.9959 21.7071C27.0093 21.5762 26.9935 21.4442 26.9494 21.3188V21.3188ZM15.0266 8.59177C15.0982 8.47459 15.1957 8.37148 15.3133 8.28865C15.4308 8.20582 15.566 8.14497 15.7106 8.10976L20.043 7.03677C20.1397 7.01271 20.2396 7.00026 20.34 6.99977C20.5874 7.00209 20.8274 7.07523 21.0244 7.20835C21.2214 7.34146 21.3648 7.52746 21.4335 7.73877L22.2897 9.99976H15.1763L14.9344 9.36276C14.8913 9.23526 14.8772 9.10139 14.893 8.96899C14.9089 8.8366 14.9543 8.70835 15.0266 8.59177V8.59177ZM6.65777 6.99977C6.75851 6.99993 6.85877 7.01204 6.9559 7.03576L11.2894 8.10976C11.5757 8.17995 11.8191 8.34791 11.9667 8.57702C12.1142 8.80613 12.1538 9.07779 12.0769 9.33277L11.8238 9.99976H4.7104L5.57665 7.70977C5.64814 7.50442 5.79161 7.32476 5.98611 7.19703C6.18061 7.0693 6.41595 7.00018 6.65777 6.99977V6.99977ZM10.0035 14.7998C9.82383 15.3706 9.45794 15.8813 8.95202 16.2674C8.44611 16.6535 7.82284 16.8978 7.16089 16.9694C6.49895 17.041 5.82798 16.9366 5.23268 16.6696C4.63738 16.4025 4.14442 15.9846 3.81602 15.4688C3.38124 14.7948 3.26319 13.9956 3.48752 13.2448L3.95327 11.9998H11.0655L10.0035 14.7998ZM18.5895 16.6078C18.1953 16.4089 17.8498 16.142 17.5734 15.8228C17.2969 15.5035 17.095 15.1384 16.9796 14.7488L15.9345 11.9998H23.0479L23.4979 13.1938C23.6774 13.7656 23.6621 14.3719 23.4537 14.936C23.2454 15.5 22.8535 15.9965 22.3276 16.3624C21.8017 16.7284 21.1655 16.9474 20.4994 16.9918C19.8334 17.0362 19.1676 16.9039 18.5862 16.6118L18.5895 16.6078Z" fill="#005E2A"/>
<path d="M17.4972 3.89993C17.63 3.95929 17.7747 3.99466 17.923 4.004C18.0713 4.01334 18.2202 3.99646 18.3611 3.95434C18.502 3.91222 18.6322 3.84568 18.744 3.75859C18.8558 3.6715 18.9471 3.56557 19.0125 3.44693L20.1376 1.44693C20.2709 1.20956 20.2928 0.934819 20.1982 0.683146C20.1037 0.431472 19.9006 0.223481 19.6335 0.10493C19.3665 -0.0136223 19.0574 -0.0330241 18.7743 0.0509922C18.4912 0.135009 18.2572 0.315561 18.1238 0.552929L16.9988 2.55293C16.9316 2.67039 16.8912 2.7985 16.8799 2.92989C16.8686 3.06127 16.8866 3.19335 16.9329 3.31852C16.9793 3.4437 17.0529 3.5595 17.1498 3.65928C17.2466 3.75906 17.3647 3.84084 17.4972 3.89993V3.89993Z" fill="#005E2A"/>
<path d="M7.99322 3.44693C8.12659 3.68496 8.36088 3.86615 8.64454 3.95063C8.78499 3.99247 8.93334 4.0093 9.08111 4.00017C9.22888 3.99104 9.37319 3.95613 9.50578 3.89743C9.63838 3.83873 9.75666 3.75739 9.85389 3.65805C9.95112 3.55872 10.0254 3.44333 10.0724 3.31848C10.1195 3.19363 10.1384 3.06177 10.1282 2.93041C10.1179 2.79906 10.0786 2.67079 10.0126 2.55293L8.88759 0.552929C8.82156 0.435396 8.73012 0.330576 8.61851 0.244454C8.5069 0.158331 8.37729 0.0925929 8.2371 0.0509922C7.95397 -0.0330241 7.64488 -0.0136223 7.37784 0.10493C7.1108 0.223481 6.90768 0.431472 6.81316 0.683146C6.71865 0.934819 6.74047 1.20956 6.87384 1.44693L7.99322 3.44693Z" fill="#005E2A"/>
<path d="M13.5002 4C13.7986 4 14.0847 3.89464 14.2957 3.70711C14.5067 3.51957 14.6252 3.26522 14.6252 3V1C14.6252 0.734784 14.5067 0.48043 14.2957 0.292893C14.0847 0.105357 13.7986 0 13.5002 0C13.2018 0 12.9157 0.105357 12.7047 0.292893C12.4937 0.48043 12.3752 0.734784 12.3752 1V3C12.3752 3.26522 12.4937 3.51957 12.7047 3.70711C12.9157 3.89464 13.2018 4 13.5002 4Z" fill="#005E2A"/>
</g>
<defs>
<clipPath id="clip0_709_159">
<rect width="27" height="24" fill="white"/>
</clipPath>
</defs>
</svg>
