<svg width="24" height="24" viewBox="0 0 24 24" fill="none" xmlns="http://www.w3.org/2000/svg">
<g clip-path="url(#clip0_709_175)">
<path d="M24.0001 14.006C23.9989 13.5866 23.9092 13.1722 23.7369 12.7898C23.5646 12.4074 23.3135 12.0657 23.0001 11.787V10C22.9972 7.34873 21.9427 4.80688 20.068 2.93215C18.1932 1.05742 15.6514 0.0029116 13.0001 0L11.0001 0C8.34883 0.0029116 5.80698 1.05742 3.93225 2.93215C2.05752 4.80688 1.00301 7.34873 1.0001 10V11.837C0.689366 12.1302 0.441808 12.4839 0.272606 12.8762C0.103405 13.2685 0.0161285 13.6912 0.0161285 14.1185C0.0161285 14.5458 0.103405 14.9685 0.272606 15.3608C0.441808 15.7531 0.689366 16.1068 1.0001 16.4V17C1.00222 18.8559 1.7404 20.6351 3.05269 21.9474C4.36499 23.2597 6.14424 23.9979 8.0001 24H16.0001C17.856 23.9979 19.6352 23.2597 20.9475 21.9474C22.2598 20.6351 22.998 18.8559 23.0001 17V16.226C23.3136 15.9472 23.5648 15.6053 23.7371 15.2228C23.9094 14.8402 23.999 14.4256 24.0001 14.006ZM2.8121 15.158C2.56276 15.0824 2.34836 14.9207 2.2071 14.7017C2.06584 14.4828 2.00689 14.2208 2.04074 13.9624C2.0746 13.7041 2.19906 13.4661 2.39197 13.291C2.58487 13.1158 2.83369 13.0148 3.0941 13.006H21.0001C21.2653 13.006 21.5197 13.1114 21.7072 13.2989C21.8947 13.4864 22.0001 13.7408 22.0001 14.006C22.0001 14.2712 21.8947 14.5256 21.7072 14.7131C21.5197 14.9006 21.2653 15.006 21.0001 15.006H17.0001C15.0441 15.006 13.0211 15.794 10.6361 17.487C10.1559 17.8205 9.58525 17.9993 9.0006 17.9993C8.41596 17.9993 7.84529 17.8205 7.3651 17.487C7.1371 17.325 6.9181 17.156 6.6981 16.987C5.60876 16.0115 4.25803 15.3758 2.8121 15.158ZM3.0001 10C3.00248 7.879 3.8461 5.84555 5.34588 4.34578C6.84565 2.846 8.8791 2.00238 11.0001 2H13.0001C15.1211 2.00238 17.1545 2.846 18.6543 4.34578C20.1541 5.84555 20.9977 7.879 21.0001 10V11.006L3.0001 11.016V10ZM16.0001 22H8.0001C6.71928 21.9966 5.48873 21.5012 4.56281 20.6162C3.6369 19.7313 3.08639 18.5244 3.0251 17.245C3.93277 17.4965 4.77173 17.9501 5.4791 18.572C5.7181 18.757 5.9581 18.941 6.2081 19.118C7.02776 19.6875 8.002 19.9928 9.0001 19.9928C9.99821 19.9928 10.9724 19.6875 11.7921 19.118C13.2716 17.8985 15.0891 17.1615 17.0001 17.006H21.0001C20.9985 18.331 20.471 19.6013 19.5335 20.5377C18.596 21.474 17.3251 22 16.0001 22ZM9.0001 5C9.0001 4.73478 9.10546 4.48043 9.29299 4.29289C9.48053 4.10536 9.73488 4 10.0001 4C10.2653 4 10.5197 4.10536 10.7072 4.29289C10.8947 4.48043 11.0001 4.73478 11.0001 5C11.0001 5.26522 10.8947 5.51957 10.7072 5.70711C10.5197 5.89464 10.2653 6 10.0001 6C9.73488 6 9.48053 5.89464 9.29299 5.70711C9.10546 5.51957 9.0001 5.26522 9.0001 5ZM6.0001 8C6.0001 7.73478 6.10546 7.48043 6.29299 7.29289C6.48053 7.10536 6.73488 7 7.0001 7C7.26532 7 7.51967 7.10536 7.70721 7.29289C7.89474 7.48043 8.0001 7.73478 8.0001 8C8.0001 8.26522 7.89474 8.51957 7.70721 8.70711C7.51967 8.89464 7.26532 9 7.0001 9C6.73488 9 6.48053 8.89464 6.29299 8.70711C6.10546 8.51957 6.0001 8.26522 6.0001 8Z" fill="#005E2A"/>
</g>
<defs>
<clipPath id="clip0_709_175">
<rect width="24" height="24" fill="white"/>
</clipPath>
</defs>
</svg>
