<svg width="27" height="24" viewBox="0 0 27 24" fill="none" xmlns="http://www.w3.org/2000/svg">
<g clip-path="url(#clip0_709_166)">
<path d="M27 9C27.0026 8.44948 26.8347 7.90895 26.5147 7.4376C26.1947 6.96625 25.735 6.58225 25.1858 6.32766C24.6367 6.07306 24.0193 5.95769 23.4014 5.99418C22.7834 6.03066 22.1886 6.21759 21.6822 6.5345C21.1758 6.85142 20.7772 7.28609 20.5302 7.79091C20.2831 8.29574 20.1971 8.85126 20.2816 9.39664C20.366 9.94202 20.6177 10.4562 21.0089 10.883C21.4002 11.3097 21.9161 11.6325 22.5 11.816V16C22.5 17.5913 21.7888 19.1174 20.523 20.2426C19.2571 21.3679 17.5402 22 15.75 22C13.9598 22 12.2429 21.3679 10.977 20.2426C9.71116 19.1174 9 17.5913 9 16V15.92C10.8721 15.6786 12.584 14.8467 13.8233 13.5762C15.0625 12.3058 15.7464 10.6815 15.75 9V5C15.7482 3.67441 15.155 2.40356 14.1005 1.46622C13.046 0.528882 11.6163 0.00158786 10.125 0C9.82663 0 9.54048 0.105357 9.32951 0.292893C9.11853 0.48043 9 0.734784 9 1C9 1.26522 9.11853 1.51957 9.32951 1.70711C9.54048 1.89464 9.82663 2 10.125 2C11.0201 2 11.8786 2.31607 12.5115 2.87868C13.1444 3.44129 13.5 4.20435 13.5 5V9C13.5 10.3261 12.9074 11.5979 11.8525 12.5355C10.7976 13.4732 9.36684 14 7.875 14C6.38316 14 4.95242 13.4732 3.89752 12.5355C2.84263 11.5979 2.25 10.3261 2.25 9V5C2.25 4.20435 2.60558 3.44129 3.23852 2.87868C3.87145 2.31607 4.72989 2 5.625 2C5.92337 2 6.20952 1.89464 6.4205 1.70711C6.63147 1.51957 6.75 1.26522 6.75 1C6.75 0.734784 6.63147 0.48043 6.4205 0.292893C6.20952 0.105357 5.92337 0 5.625 0C4.13371 0.00158786 2.704 0.528882 1.6495 1.46622C0.594992 2.40356 0.00178634 3.67441 0 5L0 9C0.00361795 10.6815 0.687478 12.3058 1.92672 13.5762C3.16596 14.8467 4.87791 15.6786 6.75 15.92V16C6.75 18.1217 7.69821 20.1566 9.38604 21.6569C11.0739 23.1571 13.3631 24 15.75 24C18.1369 24 20.4261 23.1571 22.114 21.6569C23.8018 20.1566 24.75 18.1217 24.75 16V11.816C25.4058 11.6099 25.9739 11.2288 26.3767 10.7247C26.7794 10.2206 26.9971 9.61826 27 9ZM23.625 10C23.4025 10 23.185 9.94135 23 9.83147C22.815 9.72159 22.6708 9.56541 22.5856 9.38268C22.5005 9.19996 22.4782 8.99889 22.5216 8.80491C22.565 8.61093 22.6722 8.43275 22.8295 8.29289C22.9868 8.15304 23.1873 8.0578 23.4055 8.01921C23.6238 7.98063 23.85 8.00043 24.0555 8.07612C24.2611 8.15181 24.4368 8.27998 24.5604 8.44443C24.684 8.60888 24.75 8.80222 24.75 9C24.75 9.26522 24.6315 9.51957 24.4205 9.70711C24.2095 9.89464 23.9234 10 23.625 10Z" fill="#005E2A"/>
</g>
<defs>
<clipPath id="clip0_709_166">
<rect width="27" height="24" fill="white"/>
</clipPath>
</defs>
</svg>
