<svg width="27" height="24" viewBox="0 0 27 24" fill="none" xmlns="http://www.w3.org/2000/svg">
<g clip-path="url(#clip0_709_171)">
<path d="M27 10.0002C27 9.92721 26.991 9.85443 26.973 9.78321L25.5105 3.91521C25.2387 2.80144 24.5445 1.80459 23.5441 1.09179C22.5437 0.378987 21.2981 -0.00641431 20.016 0.000205959H6.98397C5.70266 -0.00549434 4.45804 0.380328 3.45859 1.09305C2.45914 1.80578 1.76554 2.80212 1.49397 3.91521L0.026971 9.78321C0.00898014 9.85443 -7.5135e-05 9.92721 -2.8977e-05 10.0002V11.0002C-0.000936635 11.9738 0.399258 12.914 1.12497 13.6432V19.0002C1.12676 20.3258 1.71996 21.5967 2.77447 22.534C3.82897 23.4713 5.25868 23.9986 6.74997 24.0002H20.25C21.7413 23.9986 23.171 23.4713 24.2255 22.534C25.28 21.5967 25.8732 20.3258 25.875 19.0002V13.6432C26.6007 12.914 27.0009 11.9738 27 11.0002V10.0002ZM2.24997 10.1092L3.68997 4.34921C3.85314 3.68146 4.26937 3.08378 4.86899 2.65618C5.46861 2.22858 6.21525 1.99701 6.98397 2.00021H7.87497V5.00021C7.87497 5.26542 7.9935 5.51978 8.20448 5.70731C8.41546 5.89485 8.7016 6.00021 8.99997 6.00021C9.29834 6.00021 9.58449 5.89485 9.79547 5.70731C10.0064 5.51978 10.125 5.26542 10.125 5.00021V2.00021H16.875V5.00021C16.875 5.26542 16.9935 5.51978 17.2045 5.70731C17.4155 5.89485 17.7016 6.00021 18 6.00021C18.2983 6.00021 18.5845 5.89485 18.7955 5.70731C19.0064 5.51978 19.125 5.26542 19.125 5.00021V2.00021H20.016C20.7847 1.99701 21.5313 2.22858 22.131 2.65618C22.7306 3.08378 23.1468 3.68146 23.31 4.34921L24.75 10.1092V11.0002C24.75 11.5306 24.5129 12.0393 24.091 12.4144C23.669 12.7895 23.0967 13.0002 22.5 13.0002H21.375C20.7782 13.0002 20.2059 12.7895 19.784 12.4144C19.362 12.0393 19.125 11.5306 19.125 11.0002C19.125 10.735 19.0064 10.4806 18.7955 10.2931C18.5845 10.1056 18.2983 10.0002 18 10.0002C17.7016 10.0002 17.4155 10.1056 17.2045 10.2931C16.9935 10.4806 16.875 10.735 16.875 11.0002C16.875 11.5306 16.6379 12.0393 16.216 12.4144C15.794 12.7895 15.2217 13.0002 14.625 13.0002H12.375C11.7782 13.0002 11.2059 12.7895 10.784 12.4144C10.362 12.0393 10.125 11.5306 10.125 11.0002C10.125 10.735 10.0064 10.4806 9.79547 10.2931C9.58449 10.1056 9.29834 10.0002 8.99997 10.0002C8.7016 10.0002 8.41546 10.1056 8.20448 10.2931C7.9935 10.4806 7.87497 10.735 7.87497 11.0002C7.87497 11.5306 7.63792 12.0393 7.21596 12.4144C6.79401 12.7895 6.22171 13.0002 5.62497 13.0002H4.49997C3.90323 13.0002 3.33094 12.7895 2.90898 12.4144C2.48702 12.0393 2.24997 11.5306 2.24997 11.0002V10.1092ZM20.25 22.0002H6.74997C5.85487 22.0002 4.99642 21.6841 4.36349 21.1215C3.73055 20.5589 3.37497 19.7959 3.37497 19.0002V14.8732C3.7424 14.9578 4.12043 15.0005 4.49997 15.0002H5.62497C6.26376 15.0005 6.89527 14.8796 7.47729 14.6456C8.05931 14.4116 8.57843 14.0698 8.99997 13.6432C9.42151 14.0698 9.94063 14.4116 10.5227 14.6456C11.1047 14.8796 11.7362 15.0005 12.375 15.0002H14.625C15.2638 15.0005 15.8953 14.8796 16.4773 14.6456C17.0593 14.4116 17.5784 14.0698 18 13.6432C18.4215 14.0698 18.9406 14.4116 19.5227 14.6456C20.1047 14.8796 20.7362 15.0005 21.375 15.0002H22.5C22.8795 15.0005 23.2575 14.9578 23.625 14.8732V19.0002C23.625 19.7959 23.2694 20.5589 22.6365 21.1215C22.0035 21.6841 21.1451 22.0002 20.25 22.0002Z" fill="#005E2A"/>
</g>
<defs>
<clipPath id="clip0_709_171">
<rect width="27" height="24" fill="white"/>
</clipPath>
</defs>
</svg>
